<svg id="Layer_1" data-name="Layer 1" xmlns="http://www.w3.org/2000/svg" viewBox="0 0 135.85 124.59"><defs><style>.cls-1{fill:none;stroke:#666766;stroke-miterlimit:10;stroke-width:8px;}.cls-2{fill:#666766;}</style></defs><title>logo2</title><circle class="cls-1" cx="67.3" cy="62.29" r="58.29"/><path class="cls-2" d="M157.06,132.14v7.25l-29-14.74V118.2l29-14.7v7.21l-20.64,10.71Z" transform="translate(-128.1 -61.78)"/><path class="cls-2" d="M194.27,113.58l-6.59,3.62a11.17,11.17,0,0,0-3.67-2.7,11,11,0,0,0-4.25-.75,9.91,9.91,0,0,0-7.18,2.65,9,9,0,0,0-2.74,6.79,8.72,8.72,0,0,0,2.64,6.57,9.57,9.57,0,0,0,6.94,2.55,10.09,10.09,0,0,0,8.27-3.62l6.24,4.27q-5.07,6.6-14.32,6.6-8.32,0-13-4.93a16.39,16.39,0,0,1,4-26,19.08,19.08,0,0,1,9.18-2.2,18.6,18.6,0,0,1,8.44,1.87A16,16,0,0,1,194.27,113.58Z" transform="translate(-128.1 -61.78)"/><path class="cls-2" d="M198,107.2h8.06l8,18.61,8-18.61h8l-13.42,31.54h-5.13Z" transform="translate(-128.1 -61.78)"/><path class="cls-2" d="M235,110.71v-7.23l29,14.72v6.43l-29,14.75v-7.25l20.67-10.71Z" transform="translate(-128.1 -61.78)"/></svg>